<?xml version="1.0" encoding="UTF-8" standalone="no"?>
<!-- Created with Inkscape (http://www.inkscape.org/) -->

<svg
   xmlns:dc="http://purl.org/dc/elements/1.1/"
   xmlns:cc="http://creativecommons.org/ns#"
   xmlns:rdf="http://www.w3.org/1999/02/22-rdf-syntax-ns#"
   xmlns:svg="http://www.w3.org/2000/svg"
   xmlns="http://www.w3.org/2000/svg"
   xmlns:sodipodi="http://sodipodi.sourceforge.net/DTD/sodipodi-0.dtd"
   xmlns:inkscape="http://www.inkscape.org/namespaces/inkscape"
   id="svg2"
   version="1.1"
   inkscape:version="0.91 r13725"
   xml:space="preserve"
   width="442.82126"
   height="81.887497"
   viewBox="0 0 442.82124 81.887497"
   sodipodi:docname="logo_only.svg"><metadata
     id="metadata8"><rdf:RDF><cc:Work
         rdf:about=""><dc:format>image/svg+xml</dc:format><dc:type
           rdf:resource="http://purl.org/dc/dcmitype/StillImage" /><dc:title></dc:title></cc:Work></rdf:RDF></metadata><defs
     id="defs6"><clipPath
       clipPathUnits="userSpaceOnUse"
       id="clipPath28"><path
         d="m 0,595.28 841.89,0 L 841.89,0 0,0 0,595.28 Z"
         id="path30"
         inkscape:connector-curvature="0" /></clipPath></defs><sodipodi:namedview
     pagecolor="#ffffff"
     bordercolor="#666666"
     borderopacity="1"
     objecttolerance="10"
     gridtolerance="10"
     guidetolerance="10"
     inkscape:pageopacity="0"
     inkscape:pageshadow="2"
     inkscape:window-width="640"
     inkscape:window-height="480"
     id="namedview4"
     showgrid="false"
     inkscape:zoom="1.3588473"
     inkscape:cx="54.134958"
     inkscape:cy="-39.292719"
     inkscape:current-layer="g10"
     fit-margin-top="5"
     fit-margin-left="5"
     fit-margin-right="5"
     fit-margin-bottom="5" /><g
     id="g10"
     inkscape:groupmode="layer"
     inkscape:label="LOGO FINAL"
     transform="matrix(1.25,0,0,-1.25,-167.74527,572.99675)"><g
       id="g12"
       transform="translate(155.9122,453.6216)"><path
         d="m 0,0 -11.673,0 -6.043,-26.944 6.055,-29.014 11.672,0 -5.672,29.014 L 0,0 Z"
         style="fill:#662c91;fill-opacity:1;fill-rule:nonzero;stroke:none"
         id="path14"
         inkscape:connector-curvature="0" /></g><g
       id="g16"
       transform="translate(200.5428,453.6216)"><path
         d="M 0,0 -10.311,0 -14.685,-26.944 -20.691,0 -31.726,0 -36.8,-26.944 l 5.084,-29.014 10.388,0 -4.744,29.014 15.77,-29.014 10.31,0 -4.045,29.014 L 0,0 Z"
         style="fill:#662c91;fill-opacity:1;fill-rule:nonzero;stroke:none"
         id="path18"
         inkscape:connector-curvature="0" /></g><g
       id="g20"
       transform="translate(334.4505,443.8315)"><path
         d="m 0,0 -0.27,9.79 -29.982,0 10e-4,-26.944 0,-29.014 11.353,0 -0.01,19.134 15.859,0 0.218,9.88 -16.031,0 L -18.849,0 0,0 Z"
         style="fill:#662c91;fill-opacity:1;fill-rule:nonzero;stroke:none"
         id="path22"
         inkscape:connector-curvature="0" /></g><path
       inkscape:connector-curvature="0"
       id="path34"
       style="fill:#662c91;fill-opacity:1;fill-rule:nonzero;stroke:none"
       d="m 369.6716,415.2654 c -0.385,-5.441 -3.514,-8.53 -8.195,-8.53 -4.602,0 -7.346,3.089 -7.053,8.53 l 0.615,11.412 -0.544,9.393 c -0.311,5.376 2.418,8.548 7.024,8.548 4.684,0 7.838,-3.172 8.246,-8.548 l 0.714,-9.393 -0.807,-11.412 z m -8.652,39.132 c -10.939,0 -18.616,-7.098 -18.106,-18.65 l 0.4,-9.07 -0.465,-11.333 c -0.473,-11.524 6.913,-18.457 17.93,-18.457 10.947,0 19.45,7.17 20.412,18.7 l 0.925,11.09 -0.835,9.314 c -1.035,11.546 -9.237,18.406 -20.261,18.406" /><path
       inkscape:connector-curvature="0"
       id="path38"
       style="fill:#662c91;fill-opacity:1;fill-rule:nonzero;stroke:none"
       d="m 404.3499,426.6776 -2.161,17.47 5.261,0 c 5.333,0 9.163,-3.657 9.863,-8.644 0.696,-4.96 -2.308,-8.826 -7.679,-8.826 l -5.284,0 z m 3.068,26.944 -17.669,0 2.964,-26.944 -2.97,-29.014 11.268,0 2.313,20.103 4.253,0 c 0.247,0 1.64,0 1.977,0.086 l 5.052,-20.189 12.709,0 -6.724,23.276 c 1.154,0.581 2.236,1.275 3.242,2.062 2.893,2.263 4.891,5.583 5.159,9.245 0.09,1.223 0.041,2.501 -0.163,3.823 -1.574,10.21 -10.298,17.552 -21.411,17.552" /><path
       inkscape:connector-curvature="0"
       id="path42"
       style="fill:#662c91;fill-opacity:1;fill-rule:nonzero;stroke:none"
       d="m 478.4102,453.6216 -10.63,0 -4.811,-26.944 -15.452,26.944 -11.354,0 4.662,-26.944 -4.671,-29.014 10.551,0 5.017,29.014 4.304,-21.371 5.404,0 12.207,21.371 -5.712,-29.014 10.473,0 6.055,29.014 -6.043,26.944 z" /><path
       inkscape:connector-curvature="0"
       id="path46"
       style="fill:#662c91;fill-opacity:1;fill-rule:nonzero;stroke:none"
       d="m 229.7577,407.444 -5.897,0 -2.061,19.234 1.975,17.154 5.903,0 c 5.421,0 8.095,-3.264 7.496,-9.378 l -0.762,-7.776 0.893,-9.795 c 0.564,-6.182 -2.131,-9.439 -7.547,-9.439 m 18.291,19.234 0.669,7.934 c 1.037,12.297 -5.748,19.01 -17.5,19.01 l -17.669,0 -3.474,-26.944 3.481,-29.015 17.349,0 c 11.828,0 18.87,7.022 17.9,19.378 l -0.756,9.637 z" /><path
       inkscape:connector-curvature="0"
       id="path50"
       style="fill:#662c91;fill-opacity:1;fill-rule:nonzero;stroke:none"
       d="m 272.9256,407.444 -0.452,9.676 16.171,0 -0.276,9.558 -16.341,0 0.861,17.154 19.251,0 0.265,9.79 -30.379,0 -1.723,-26.944 1.727,-29.015 30.774,0 -0.243,9.781 -19.635,0 z" /></g></svg>